<svg xmlns="http://www.w3.org/2000/svg" viewBox="0 0 20 25" x="0px" y="0px">
    <g transform="scale(-1, 1) translate(-20, 0)">
        <path d="M15.29384,10.24577A5.29482,5.29482,0,0,0,6.3506,6.15629c-2.52252-.71808-4.00567-.66858-4.3872.1687-.38276.837.55066,1.9925,2.74279,3.428a5.28917,5.28917,0,0,0,8.93744,4.088,11.01667,11.01667,0,0,0,2.83637.50745c.83008,0,1.35107-.22461,1.55664-.6748C18.41908,12.83726,17.48714,11.68278,15.29384,10.24577ZM11.791,6.08134a4.31368,4.31368,0,0,1,2.127,5.709,4.262,4.262,0,0,1-.58735.91577,31.37784,31.37784,0,0,1-3.88482-1.4939A31.44868,31.44868,0,0,1,5.77358,9.25029a4.25438,4.25438,0,0,1,.30847-1.042A4.31211,4.31211,0,0,1,11.791,6.08134Zm-8.93017.67725c.1123-.10791.86151-.25751,2.77777.2381a5.2804,5.2804,0,0,0-.46576.79559,5.27272,5.27272,0,0,0-.29688.87231C3.24635,7.53984,2.86788,6.87877,2.86086,6.75859ZM8.209,13.91728a4.29547,4.29547,0,0,1-2.47833-3.51642A33.99776,33.99776,0,0,0,9.0298,12.12138a33.97018,33.97018,0,0,0,3.4588,1.36981A4.29231,4.29231,0,0,1,8.209,13.91728Zm6.15772-.914a5.283,5.283,0,0,0,.46045-.79694A5.2736,5.2736,0,0,0,15.124,11.334c1.62964,1.12475,2.00812,1.78582,2.01514,1.906C17.02748,13.34733,16.28127,13.498,14.36672,13.00328Zm1.41522-5.418a.90294.90294,0,1,1,1.27691,0A.9029.9029,0,0,1,15.78194,7.58531Z"/>
    </g>
    <text x="0" y="35" fill="#000000" font-size="5px" font-weight="bold"
          font-family="'Helvetica Neue', Helvetica, Arial-Unicode, Arial, Sans-serif">Created by The Icon Z
    </text>
    <text x="0" y="40" fill="#000000" font-size="5px" font-weight="bold"
          font-family="'Helvetica Neue', Helvetica, Arial-Unicode, Arial, Sans-serif">from the Noun Project
    </text>
</svg>
